# xmcd
#
# Track frame offsets:
#	150
#	11747
#	27314
#	40795
#	51730
#	68251
#	86275
#	100525
#	112124
#	135415
#	151908
#	166764
#	182923
#	208755
#	223106
#	239298
#	257001
#	269356
#	282905
#	299500
#
# Disc length: 4259 seconds
#
# Revision: 1
# Processed by: cddbd v1.4PL0 Copyright (c) Steve Scherf et al.
# Submitted via: audiograbber 1.82.02
#
DISCID=1e10a114
DTITLE=Joe Price - Requests
DYEAR=1999
DGENRE=Blues
TTITLE0=Bad Luck, Blues and Troubles
TTITLE1=Willy's Boogie
TTITLE2=Running Wild
TTITLE3=Grandma's Music Box
TTITLE4=Trouble Goodbye
TTITLE5=Iowa Crawl
TTITLE6=One Poor Joe
TTITLE7=Down On the Highway
TTITLE8=Gravel Road Blues
TTITLE9=Blues in my Kitchen
TTITLE10=Oh Doctor
TTITLE11=Life is Just A Book
TTITLE12=Mountain of Blues
TTITLE13=Chicago Northwestern Line
TTITLE14=Suitcase Boogie
TTITLE15=That's Alright With Me
TTITLE16=Record Player Mama
TTITLE17=Kaydee Boogie
TTITLE18=Freight Train 92
TTITLE19=Bye You Bye
EXTD=
EXTT0=
EXTT1=
EXTT2=
EXTT3=
EXTT4=
EXTT5=
EXTT6=
EXTT7=
EXTT8=
EXTT9=
EXTT10=
EXTT11=
EXTT12=
EXTT13=
EXTT14=
EXTT15=
EXTT16=
EXTT17=
EXTT18=
EXTT19=
PLAYORDER=
